<?xml version="1.0" encoding="UTF-8" standalone="no"?>
<svg
   width="400"
   height="400"
   viewBox="0 0 400 400"
   version="1.1"
   id="svg44"
   sodipodi:docname="1_Angel.svg"
   xmlns:inkscape="http://www.inkscape.org/namespaces/inkscape"
   xmlns:sodipodi="http://sodipodi.sourceforge.net/DTD/sodipodi-0.dtd"
   xmlns="http://www.w3.org/2000/svg"
   xmlns:svg="http://www.w3.org/2000/svg"
   xmlns:c2pa="http://c2pa.org/manifest">
  <defs
     id="defs44" />
  <sodipodi:namedview
     id="namedview44"
     pagecolor="#ffffff"
     bordercolor="#000000"
     borderopacity="0.25"
     inkscape:showpageshadow="2"
     inkscape:pageopacity="0.0"
     inkscape:pagecheckerboard="0"
     inkscape:deskcolor="#d1d1d1">
    <inkscape:page
       x="0"
       y="0"
       width="400"
       height="400"
       id="page2"
       margin="0"
       bleed="0" />
  </sodipodi:namedview>
  <metadata
     id="metadata1">
    <c2pa:manifest>AAAWgmp1bWIAAAAeanVtZGMycGEAEQAQgAAAqgA4m3EDYzJwYQAAABZcanVtYgAAAEdqdW1kYzJtYQARABCAAACqADibcQN1cm46YzJwYTozYmQyZGQ2YS0zZDQ0LTQ3M2QtODQzYS01NjAwZjBkYWJiYzIAAAADl2p1bWIAAAApanVtZGMyYXMAEQAQgAAAqgA4m3EDYzJwYS5hc3NlcnRpb25zAAAAALxqdW1iAAAARGp1bWRjYm9yABEAEIAAAKoAOJtxE2MycGEuaW5ncmVkaWVudC52MwAAAAAYYzJzaB/J51fCQWWHbyiIZ+LI2jcAAABwY2JvcqNpZGM6Zm9ybWF0bWltYWdlL3N2Zyt4bWxqaW5zdGFuY2VJRHgseG1wOmlpZDoxOTBkNzcyMy05ODNkLTQ0MmEtYTE2ZC1hMWExM2IzODExYTFscmVsYXRpb25zaGlwaHBhcmVudE9mAAAB4mp1bWIAAABBanVtZGNib3IAEQAQgAAAqgA4m3ETYzJwYS5hY3Rpb25zLnYyAAAAABhjMnNoYHTrnhw3SRNU3JPBgLGJFAAAAZljYm9yomdhY3Rpb25zgqJmYWN0aW9ua2MycGEub3BlbmVkanBhcmFtZXRlcnOha2luZ3JlZGllbnRzgaJjdXJseC1zZWxmI2p1bWJmPWMycGEuYXNzZXJ0aW9ucy9jMnBhLmluZ3JlZGllbnQudjNkaGFzaFggn7mGOkyWX5iOl8xEygtdmO98m0mSQiIF6RXKGKEPTH+kZmFjdGlvbngdY29tLmFudGhyb3BpYy5jbGF1ZGUucHJvdmlkZWRqcGFyYW1ldGVyc6F4H2NvbS5hbnRocm9waWMub3JpZ2luLWNvbmZpZGVuY2VndW5rbm93bmtkZXNjcmlwdGlvbnhmQ2xhdWRlIHByb3ZpZGVkIHRoaXMgZmlsZSBhdCB0aGUgcmVxdWVzdCBvZiBhIHVzZXIgYW5kIG1heSBoYXZlIGNyZWF0ZWQgb3IgbW9kaWZpZWQgdGhlIGZpbGUgY29udGVudHMubXNvZnR3YXJlQWdlbnShZG5hbWVmQ2xhdWRlcmFsbEFjdGlvbnNJbmNsdWRlZPUAAADIanVtYgAAAEBqdW1kY2JvcgARABCAAACqADibcRNjMnBhLmhhc2guZGF0YQAAAAAYYzJzaIsKAqX22ZHGJ2FQ5WvZhXEAAACAY2JvcqVjYWxnZnNoYTI1NmNwYWRNAAAAAAAAAAAAAAAAAGRoYXNoWCCjVHZUD/SW/uRzB24Exk6RcrzlaeuyH42/YXpZuC8x/mRuYW1lbmp1bWJmIG1hbmlmZXN0amV4Y2x1c2lvbnOBomVzdGFydBiWZmxlbmd0aBkeBAAAAj5qdW1iAAAAJ2p1bWRjMmNsABEAEIAAAKoAOJtxA2MycGEuY2xhaW0udjIAAAACD2Nib3KlY2FsZ2ZzaGEyNTZpc2lnbmF0dXJleE1zZWxmI2p1bWJmPS9jMnBhL3VybjpjMnBhOjNiZDJkZDZhLTNkNDQtNDczZC04NDNhLTU2MDBmMGRhYmJjMi9jMnBhLnNpZ25hdHVyZWppbnN0YW5jZUlEeCx4bXA6aWlkOmZhMDFjNmFjLTJiYjgtNDg5Ny1hOTJkLTdhYWIxMTgwNDc2YnJjcmVhdGVkX2Fzc2VydGlvbnODomN1cmx4LXNlbGYjanVtYmY9YzJwYS5hc3NlcnRpb25zL2MycGEuaW5ncmVkaWVudC52M2RoYXNoWCCfuYY6TJZfmI6XzETKC12Y73ybSZJCIgXpFcoYoQ9Mf6JjdXJseCpzZWxmI2p1bWJmPWMycGEuYXNzZXJ0aW9ucy9jMnBhLmFjdGlvbnMudjJkaGFzaFggre0RxRHgflOdTPhrpyLupIAnd9i6kZFHfNHHMOlaaR6iY3VybHgpc2VsZiNqdW1iZj1jMnBhLmFzc2VydGlvbnMvYzJwYS5oYXNoLmRhdGFkaGFzaFgg7mip9iMtlOnaXE7AZ/Q4l4LaIHVlzfYj5LVy3H6vmHp0Y2xhaW1fZ2VuZXJhdG9yX2luZm+jZG5hbWVvQW50aHJvcGljIEZpbGVzZ3ZlcnNpb25lMS4wLjBrc3BlY1ZlcnNpb25lMi40LjAAABA4anVtYgAAAChqdW1kYzJjcwARABCAAACqADibcQNjMnBhLnNpZ25hdHVyZQAAABAIY2JvctKEWQISogEmGCFZAgowggIGMIIBjaADAgECAhRA5aAK7sI50L64g/oGQgU9Z1UTADAKBggqhkjOPQQDAzBJMRcwFQYDVQQKEw5BbnRocm9waWMsIFBCQzEuMCwGA1UEAxMlQW50aHJvcGljIENvbnRlbnQgQ3JlZGVudGlhbHMgUm9vdCBDQTAeFw0yNjA4MDcxODQzNTZaFw0yODA4MDYxOTQzNTZaMEQxFzAVBgNVBAoTDkFudGhyb3BpYywgUEJDMSkwJwYDVQQDEyBBbnRocm9waWMgQ2xhdWRlIENvbnRlbnQgU2lnbmluZzBZMBMGByqGSM49AgEGCCqGSM49AwEHA0IABJh6CmvLUBgFFNU0vUKlOVtE6djd17L5SuwX0LemFisBM3dkd/3cyjxFA3Qo5S46fX0/ihY0VZ7mfb9KF703t5OjWDBWMA4GA1UdDwEB/wQEAwIHgDAVBgNVHSUEDjAMBgorBgEEAYPoXgIBMAwGA1UdEwEB/wQCMAAwHwYDVR0jBBgwFoAUzlHiBIFOZFsj+OPEz5o+nMHXXMIwCgYIKoZIzj0EAwMDZwAwZAIwMXMdFJ4BetLLVY7ORuE9noqbbAZOZn/aArXyTwFAZfKrPzxF2vPoJNf1+UCdg1XGAjBwX1zd9WGqYkqmL5SFqw1QySjr1zJfpJM9+1rdDwSPLMOPOjKuiXjoU/pUUeG9RwmhY3BhZFkNngAAAAAAAAAAAAAAAAAAAAAAAAAAAAAAAAAAAAAAAAAAAAAAAAAAAAAAAAAAAAAAAAAAAAAAAAAAAAAAAAAAAAAAAAAAAAAAAAAAAAAAAAAAAAAAAAAAAAAAAAAAAAAAAAAAAAAAAAAAAAAAAAAAAAAAAAAAAAAAAAAAAAAAAAAAAAAAAAAAAAAAAAAAAAAAAAAAAAAAAAAAAAAAAAAAAAAAAAAAAAAAAAAAAAAAAAAAAAAAAAAAAAAAAAAAAAAAAAAAAAAAAAAAAAAAAAAAAAAAAAAAAAAAAAAAAAAAAAAAAAAAAAAAAAAAAAAAAAAAAAAAAAAAAAAAAAAAAAAAAAAAAAAAAAAAAAAAAAAAAAAAAAAAAAAAAAAAAAAAAAAAAAAAAAAAAAAAAAAAAAAAAAAAAAAAAAAAAAAAAAAAAAAAAAAAAAAAAAAAAAAAAAAAAAAAAAAAAAAAAAAAAAAAAAAAAAAAAAAAAAAAAAAAAAAAAAAAAAAAAAAAAAAAAAAAAAAAAAAAAAAAAAAAAAAAAAAAAAAAAAAAAAAAAAAAAAAAAAAAAAAAAAAAAAAAAAAAAAAAAAAAAAAAAAAAAAAAAAAAAAAAAAAAAAAAAAAAAAAAAAAAAAAAAAAAAAAAAAAAAAAAAAAAAAAAAAAAAAAAAAAAAAAAAAAAAAAAAAAAAAAAAAAAAAAAAAAAAAAAAAAAAAAAAAAAAAAAAAAAAAAAAAAAAAAAAAAAAAAAAAAAAAAAAAAAAAAAAAAAAAAAAAAAAAAAAAAAAAAAAAAAAAAAAAAAAAAAAAAAAAAAAAAAAAAAAAAAAAAAAAAAAAAAAAAAAAAAAAAAAAAAAAAAAAAAAAAAAAAAAAAAAAAAAAAAAAAAAAAAAAAAAAAAAAAAAAAAAAAAAAAAAAAAAAAAAAAAAAAAAAAAAAAAAAAAAAAAAAAAAAAAAAAAAAAAAAAAAAAAAAAAAAAAAAAAAAAAAAAAAAAAAAAAAAAAAAAAAAAAAAAAAAAAAAAAAAAAAAAAAAAAAAAAAAAAAAAAAAAAAAAAAAAAAAAAAAAAAAAAAAAAAAAAAAAAAAAAAAAAAAAAAAAAAAAAAAAAAAAAAAAAAAAAAAAAAAAAAAAAAAAAAAAAAAAAAAAAAAAAAAAAAAAAAAAAAAAAAAAAAAAAAAAAAAAAAAAAAAAAAAAAAAAAAAAAAAAAAAAAAAAAAAAAAAAAAAAAAAAAAAAAAAAAAAAAAAAAAAAAAAAAAAAAAAAAAAAAAAAAAAAAAAAAAAAAAAAAAAAAAAAAAAAAAAAAAAAAAAAAAAAAAAAAAAAAAAAAAAAAAAAAAAAAAAAAAAAAAAAAAAAAAAAAAAAAAAAAAAAAAAAAAAAAAAAAAAAAAAAAAAAAAAAAAAAAAAAAAAAAAAAAAAAAAAAAAAAAAAAAAAAAAAAAAAAAAAAAAAAAAAAAAAAAAAAAAAAAAAAAAAAAAAAAAAAAAAAAAAAAAAAAAAAAAAAAAAAAAAAAAAAAAAAAAAAAAAAAAAAAAAAAAAAAAAAAAAAAAAAAAAAAAAAAAAAAAAAAAAAAAAAAAAAAAAAAAAAAAAAAAAAAAAAAAAAAAAAAAAAAAAAAAAAAAAAAAAAAAAAAAAAAAAAAAAAAAAAAAAAAAAAAAAAAAAAAAAAAAAAAAAAAAAAAAAAAAAAAAAAAAAAAAAAAAAAAAAAAAAAAAAAAAAAAAAAAAAAAAAAAAAAAAAAAAAAAAAAAAAAAAAAAAAAAAAAAAAAAAAAAAAAAAAAAAAAAAAAAAAAAAAAAAAAAAAAAAAAAAAAAAAAAAAAAAAAAAAAAAAAAAAAAAAAAAAAAAAAAAAAAAAAAAAAAAAAAAAAAAAAAAAAAAAAAAAAAAAAAAAAAAAAAAAAAAAAAAAAAAAAAAAAAAAAAAAAAAAAAAAAAAAAAAAAAAAAAAAAAAAAAAAAAAAAAAAAAAAAAAAAAAAAAAAAAAAAAAAAAAAAAAAAAAAAAAAAAAAAAAAAAAAAAAAAAAAAAAAAAAAAAAAAAAAAAAAAAAAAAAAAAAAAAAAAAAAAAAAAAAAAAAAAAAAAAAAAAAAAAAAAAAAAAAAAAAAAAAAAAAAAAAAAAAAAAAAAAAAAAAAAAAAAAAAAAAAAAAAAAAAAAAAAAAAAAAAAAAAAAAAAAAAAAAAAAAAAAAAAAAAAAAAAAAAAAAAAAAAAAAAAAAAAAAAAAAAAAAAAAAAAAAAAAAAAAAAAAAAAAAAAAAAAAAAAAAAAAAAAAAAAAAAAAAAAAAAAAAAAAAAAAAAAAAAAAAAAAAAAAAAAAAAAAAAAAAAAAAAAAAAAAAAAAAAAAAAAAAAAAAAAAAAAAAAAAAAAAAAAAAAAAAAAAAAAAAAAAAAAAAAAAAAAAAAAAAAAAAAAAAAAAAAAAAAAAAAAAAAAAAAAAAAAAAAAAAAAAAAAAAAAAAAAAAAAAAAAAAAAAAAAAAAAAAAAAAAAAAAAAAAAAAAAAAAAAAAAAAAAAAAAAAAAAAAAAAAAAAAAAAAAAAAAAAAAAAAAAAAAAAAAAAAAAAAAAAAAAAAAAAAAAAAAAAAAAAAAAAAAAAAAAAAAAAAAAAAAAAAAAAAAAAAAAAAAAAAAAAAAAAAAAAAAAAAAAAAAAAAAAAAAAAAAAAAAAAAAAAAAAAAAAAAAAAAAAAAAAAAAAAAAAAAAAAAAAAAAAAAAAAAAAAAAAAAAAAAAAAAAAAAAAAAAAAAAAAAAAAAAAAAAAAAAAAAAAAAAAAAAAAAAAAAAAAAAAAAAAAAAAAAAAAAAAAAAAAAAAAAAAAAAAAAAAAAAAAAAAAAAAAAAAAAAAAAAAAAAAAAAAAAAAAAAAAAAAAAAAAAAAAAAAAAAAAAAAAAAAAAAAAAAAAAAAAAAAAAAAAAAAAAAAAAAAAAAAAAAAAAAAAAAAAAAAAAAAAAAAAAAAAAAAAAAAAAAAAAAAAAAAAAAAAAAAAAAAAAAAAAAAAAAAAAAAAAAAAAAAAAAAAAAAAAAAAAAAAAAAAAAAAAAAAAAAAAAAAAAAAAAAAAAAAAAAAAAAAAAAAAAAAAAAAAAAAAAAAAAAAAAAAAAAAAAAAAAAAAAAAAAAAAAAAAAAAAAAAAAAAAAAAAAAAAAAAAAAAAAAAAAAAAAAAAAAAAAAAAAAAAAAAAAAAAAAAAAAAAAAAAAAAAAAAAAAAAAAAAAAAAAAAAAAAAAAAAAAAAAAAAAAAAAAAAAAAAAAAAAAAAAAAAAAAAAAAAAAAAAAAAAAAAAAAAAAAAAAAAAAAAAAAAAAAAAAAAAAAAAAAAAAAAAAAAAAAAAAAAAAAAAAAAAAAAAAAAAAAAAAAAAAAAAAAAAAAAAAAAAAAAAAAAAAAAAAAAAAAAAAAAAAAAAAAAAAAAAAAAAAAAAAAAAAAAAAAAAAAAAAAAAAAAAAAAAAAAAAAAAAAAAAAAAAAAAAAAAAAAAAAAAAAAAAAAAAAAAAAAAAAAAAAAAAAAAAAAAAAAAAAAAAAAAAAAAAAAAAAAAAAAAAAAAAAAAAAAAAAAAAAAAAAAAAAAAAAAAAAAAAAAAAAAAAAAAAAAAAAAAAAAAAAAAAAAAAAAAAAAAAAAAAAAAAAAAAAAAAAAAAAAAAAAAAAAAAAAAAAAAAAAAAAAAAAAAAAAAAAAAAAAAAAAAAAAAAAAAAAAAAAAAAAAAAAAAAAAAAAAAAAAAAAAAAAAAAAAAAAAAAAAAAAAAAAAAAAAAAAAAAAAAAAAAAAAAAAAAAAAAAAAAAAAAAAAAAAAAAAAAAAAAAAAAAAAAAAAAAAAAAAAAAAAAAAAAAAAAAAAAAAAAAAAAAAAAAAAAAAAAAAAAAAAAAAAAAAAAAAAAAAAAAAAAAAAAAAAAAAAAAAAAAAAAAAAAAAAAAAAAAAAAAAAAAAAAAAAAAAAAAAAAAAAAAAAAAAAAAAAAAAAAAAAAAAAAAAAAAAAAAAAAAAAAAAAAAAAAAAAAAAAAAAAAAAAAAAAAAAAAAAAAAAAAAAAAAAAAAAAAAAAAAAAAAAAAAAAAAAAAAAAAAAAAAAAAAAAAAAAAAAAAAAAAAAAAAAAAAAAAAAAAAAAAAAAAAAAAAAAAAAAAAAAAAAAAAAAAAAAAAAAAAAAAAAAAAAAAAAAAAAAAAAAAAAAAAAAAAAAAAAAAAAAAAAAAAAAAAAAAAAAAAAAAAAAAAAAAAAAAAAAAAAAAAAAAAAAAAAAAAAAAAAAAAAAAAAAAAAAAAAAAAAAAAAAAAAAAAAAAAAAAAAAAAAAAAAAAAAAAAAAAAAAAAAAAAAAAAAAAAAAAAAAAAAAAAAAAAAAAAAAAAAAAAAAAAAAAAAAAAAAAAAAAAAAAAAAAAAAAAAAAAAAAAAAAAAAAAAAAAAAAAAAAAAAAAAAAAAAAAAAAAAAAAAAAAAAAAAAAAAAAAAAAAAAAAAAAAAAAAAAAAAAAAAAAAAAAAAAAAAAAAAAAAAAAAAAAAAAAAAAAAAAAAAAAAAAAAAAAAAAAAAAAAAAAAAAAAAAAAAAAAAAAAAAAAAAAAAAAAAAAAAAAAAAAAAAAAAAAAAAAAAAAAAAAAAAAAAAAAAAAAAAAAAAAAAAAAAAAAAAAAAAAAAAAAAAAAAAAAAAAAAAAAAAAAAAAAAAAAAAAAAAAAAAAAAAAAAPZYQCj2v3YVvmuCxOf6dNweTT/WFvHj2Orea43UXmTtDXGemsYs2V3oUdjv1U/FVrTg9MkQjtN7j/tuQThXWlaDbCc=</c2pa:manifest>
  </metadata>
  <clipPath
     id="cc">
    <rect
       width="400"
       height="400"
       rx="28"
       id="rect1"
       x="0"
       y="0" />
  </clipPath>
  <g
     clip-path="url(#cc)"
     id="g44"
     inkscape:label="background"
     style="display:none">
    <defs
       id="defs4">
      <linearGradient
         id="g1"
         x1="0"
         y1="0"
         x2="0"
         y2="400"
         gradientUnits="userSpaceOnUse">
        <stop
           offset="0"
           stop-color="#9fd8ff"
           id="stop1" />
        <stop
           offset="1"
           stop-color="#fff7e6"
           id="stop2" />
      </linearGradient>
      <linearGradient
         id="g11"
         x1="90.824242"
         y1="94.952621"
         x2="90.824242"
         y2="149.21126"
         gradientTransform="scale(1.6955825,0.58976782)"
         gradientUnits="userSpaceOnUse">
        <stop
           offset="0"
           stop-color="#fff3a0"
           id="stop3" />
        <stop
           offset="1"
           stop-color="#f2b01e"
           id="stop4" />
      </linearGradient>
    </defs>
    <path
       id="rect4"
       style="fill:url(#g1)"
       d="m 28,0 h 344 c 15.512,0 28,12.488 28,28 v 344 c 0,15.512 -12.488,28 -28,28 H 28 C 12.488,400 0,387.512 0,372 V 28 C 0,12.488 12.488,0 28,0 Z" />
    <path
       id="circle4"
       style="fill:#ffffff;fill-opacity:0.8"
       d="M 90,330 A 30,30 0 0 1 60,360 30,30 0 0 1 30,330 30,30 0 0 1 60,300 30,30 0 0 1 90,330 Z" />
    <path
       id="circle5"
       style="fill:#ffffff;fill-opacity:0.8"
       d="m 105,334 a 21,21 0 0 1 -21,21 21,21 0 0 1 -21,-21 21,21 0 0 1 21,-21 21,21 0 0 1 21,21 z" />
    <path
       id="circle6"
       style="fill:#ffffff;fill-opacity:0.8"
       d="M 366,60 A 26,26 0 0 1 340,86 26,26 0 0 1 314,60 26,26 0 0 1 340,34 26,26 0 0 1 366,60 Z" />
    <path
       id="circle7"
       style="fill:#ffffff;fill-opacity:0.8"
       d="m 378.99999,64 a 18.200001,18.200001 0 0 1 -18.2,18.200001 18.200001,18.200001 0 0 1 -18.2,-18.200001 18.200001,18.200001 0 0 1 18.2,-18.200001 18.200001,18.200001 0 0 1 18.2,18.200001 z" />
    <path
       id="circle8"
       style="fill:#ffffff;fill-opacity:0.8"
       d="m 364,340 a 34,34 0 0 1 -34,34 34,34 0 0 1 -34,-34 34,34 0 0 1 34,-34 34,34 0 0 1 34,34 z" />
    <path
       id="circle9"
       style="fill:#ffffff;fill-opacity:0.8"
       d="m 381.00001,344 a 23.799999,23.799999 0 0 1 -23.8,23.8 23.799999,23.799999 0 0 1 -23.8,-23.8 23.799999,23.799999 0 0 1 23.8,-23.8 23.799999,23.799999 0 0 1 23.8,23.8 z" />
    <clipPath
       id="av1">
      <path
         id="circle40"
         d="m 292,200 a 92,92 0 0 1 -92,92 92,92 0 0 1 -92,-92 92,92 0 0 1 92,-92 92,92 0 0 1 92,92 z" />
    </clipPath>
  </g>
  <g
     id="g46"
     style="display:inline"
     inkscape:label="frame">
    <path
       id="ellipse9"
       transform="rotate(24,100,150)"
       style="fill:#ffffff;stroke:#9db4cc;stroke-width:3"
       d="m 100,150 a 60,13 0 0 1 -60,13 60,13 0 0 1 -60,-13 60,13 0 0 1 60,-13 60,13 0 0 1 60,13 z" />
    <path
       id="ellipse10"
       transform="rotate(13.2,100,153)"
       style="fill:#ffffff;stroke:#9db4cc;stroke-width:3"
       d="m 100,153 a 60,13 0 0 1 -60,13 60,13 0 0 1 -60,-13 60,13 0 0 1 60,-13 60,13 0 0 1 60,13 z" />
    <path
       id="ellipse11"
       transform="rotate(2.4,100,156)"
       style="fill:#ffffff;stroke:#9db4cc;stroke-width:3"
       d="m 100,156 a 60,13 0 0 1 -60,13 60,13 0 0 1 -60,-13 60,13 0 0 1 60,-13 60,13 0 0 1 60,13 z" />
    <path
       id="ellipse12"
       transform="rotate(-8.4,100,159)"
       style="fill:#ffffff;stroke:#9db4cc;stroke-width:3"
       d="m 100,159 a 60,13 0 0 1 -60,13 60,13 0 0 1 -60,-13 60,13 0 0 1 60,-13 60,13 0 0 1 60,13 z" />
    <path
       id="ellipse13"
       transform="rotate(-19.2,100,162)"
       style="fill:#ffffff;stroke:#9db4cc;stroke-width:3"
       d="m 100,162 a 60,13 0 0 1 -60,13 60,13 0 0 1 -60,-13 60,13 0 0 1 60,-13 60,13 0 0 1 60,13 z" />
    <path
       id="ellipse14"
       transform="rotate(20.4,100,190)"
       style="fill:#ffffff;stroke:#9db4cc;stroke-width:3"
       d="M 100,190 A 52.5,13 0 0 1 47.5,203 52.5,13 0 0 1 -5,190 52.5,13 0 0 1 47.5,177 52.5,13 0 0 1 100,190 Z" />
    <path
       id="ellipse15"
       transform="rotate(9.6,100,193)"
       style="fill:#ffffff;stroke:#9db4cc;stroke-width:3"
       d="M 100,193 A 52.5,13 0 0 1 47.5,206 52.5,13 0 0 1 -5,193 52.5,13 0 0 1 47.5,180 52.5,13 0 0 1 100,193 Z" />
    <path
       id="ellipse16"
       transform="rotate(-1.2,100,196)"
       style="fill:#ffffff;stroke:#9db4cc;stroke-width:3"
       d="M 100,196 A 52.5,13 0 0 1 47.5,209 52.5,13 0 0 1 -5,196 52.5,13 0 0 1 47.5,183 52.5,13 0 0 1 100,196 Z" />
    <path
       id="ellipse17"
       transform="rotate(-12,100,199)"
       style="fill:#ffffff;stroke:#9db4cc;stroke-width:3"
       d="M 100,199 A 52.5,13 0 0 1 47.5,212 52.5,13 0 0 1 -5,199 52.5,13 0 0 1 47.5,186 52.5,13 0 0 1 100,199 Z" />
    <path
       id="ellipse18"
       transform="rotate(-22.8,100,202)"
       style="fill:#ffffff;stroke:#9db4cc;stroke-width:3"
       d="M 100,202 A 52.5,13 0 0 1 47.5,215 52.5,13 0 0 1 -5,202 52.5,13 0 0 1 47.5,189 52.5,13 0 0 1 100,202 Z" />
    <path
       id="ellipse19"
       transform="rotate(16.8,100,230)"
       style="fill:#ffffff;stroke:#9db4cc;stroke-width:3"
       d="m 100,230 a 40,13 0 0 1 -40,13 40,13 0 0 1 -40,-13 40,13 0 0 1 40,-13 40,13 0 0 1 40,13 z" />
    <path
       id="ellipse20"
       transform="rotate(6,100,233)"
       style="fill:#ffffff;stroke:#9db4cc;stroke-width:3"
       d="m 100,233 a 40,13 0 0 1 -40,13 40,13 0 0 1 -40,-13 40,13 0 0 1 40,-13 40,13 0 0 1 40,13 z" />
    <path
       id="ellipse21"
       transform="rotate(-4.8,100,236)"
       style="fill:#ffffff;stroke:#9db4cc;stroke-width:3"
       d="m 100,236 a 40,13 0 0 1 -40,13 40,13 0 0 1 -40,-13 40,13 0 0 1 40,-13 40,13 0 0 1 40,13 z" />
    <path
       id="ellipse22"
       transform="rotate(-15.6,100,239)"
       style="fill:#ffffff;stroke:#9db4cc;stroke-width:3"
       d="m 100,239 a 40,13 0 0 1 -40,13 40,13 0 0 1 -40,-13 40,13 0 0 1 40,-13 40,13 0 0 1 40,13 z" />
    <path
       id="ellipse23"
       transform="rotate(-24,300,150)"
       style="fill:#ffffff;stroke:#9db4cc;stroke-width:3"
       d="m 420,150 a 60,13 0 0 1 -60,13 60,13 0 0 1 -60,-13 60,13 0 0 1 60,-13 60,13 0 0 1 60,13 z" />
    <path
       id="ellipse24"
       transform="rotate(-13.2,300,153)"
       style="fill:#ffffff;stroke:#9db4cc;stroke-width:3"
       d="m 420,153 a 60,13 0 0 1 -60,13 60,13 0 0 1 -60,-13 60,13 0 0 1 60,-13 60,13 0 0 1 60,13 z" />
    <path
       id="ellipse25"
       transform="rotate(-2.4,300,156)"
       style="fill:#ffffff;stroke:#9db4cc;stroke-width:3"
       d="m 420,156 a 60,13 0 0 1 -60,13 60,13 0 0 1 -60,-13 60,13 0 0 1 60,-13 60,13 0 0 1 60,13 z" />
    <path
       id="ellipse26"
       transform="rotate(8.4,300,159)"
       style="fill:#ffffff;stroke:#9db4cc;stroke-width:3"
       d="m 420,159 a 60,13 0 0 1 -60,13 60,13 0 0 1 -60,-13 60,13 0 0 1 60,-13 60,13 0 0 1 60,13 z" />
    <path
       id="ellipse27"
       transform="rotate(19.2,300,162)"
       style="fill:#ffffff;stroke:#9db4cc;stroke-width:3"
       d="m 420,162 a 60,13 0 0 1 -60,13 60,13 0 0 1 -60,-13 60,13 0 0 1 60,-13 60,13 0 0 1 60,13 z" />
    <path
       id="ellipse28"
       transform="rotate(-20.4,300,190)"
       style="fill:#ffffff;stroke:#9db4cc;stroke-width:3"
       d="M 405,190 A 52.5,13 0 0 1 352.5,203 52.5,13 0 0 1 300,190 52.5,13 0 0 1 352.5,177 52.5,13 0 0 1 405,190 Z" />
    <path
       id="ellipse29"
       transform="rotate(-9.6,300,193)"
       style="fill:#ffffff;stroke:#9db4cc;stroke-width:3"
       d="M 405,193 A 52.5,13 0 0 1 352.5,206 52.5,13 0 0 1 300,193 52.5,13 0 0 1 352.5,180 52.5,13 0 0 1 405,193 Z" />
    <path
       id="ellipse30"
       transform="rotate(1.2,300,196)"
       style="fill:#ffffff;stroke:#9db4cc;stroke-width:3"
       d="M 405,196 A 52.5,13 0 0 1 352.5,209 52.5,13 0 0 1 300,196 52.5,13 0 0 1 352.5,183 52.5,13 0 0 1 405,196 Z" />
    <path
       id="ellipse31"
       transform="rotate(12,300,199)"
       style="fill:#ffffff;stroke:#9db4cc;stroke-width:3"
       d="M 405,199 A 52.5,13 0 0 1 352.5,212 52.5,13 0 0 1 300,199 52.5,13 0 0 1 352.5,186 52.5,13 0 0 1 405,199 Z" />
    <path
       id="ellipse32"
       transform="rotate(22.8,300,202)"
       style="fill:#ffffff;stroke:#9db4cc;stroke-width:3"
       d="M 405,202 A 52.5,13 0 0 1 352.5,215 52.5,13 0 0 1 300,202 52.5,13 0 0 1 352.5,189 52.5,13 0 0 1 405,202 Z" />
    <path
       id="ellipse33"
       transform="rotate(-16.8,300,230)"
       style="fill:#ffffff;stroke:#9db4cc;stroke-width:3"
       d="m 380,230 a 40,13 0 0 1 -40,13 40,13 0 0 1 -40,-13 40,13 0 0 1 40,-13 40,13 0 0 1 40,13 z" />
    <path
       id="ellipse34"
       transform="rotate(-6,300,233)"
       style="fill:#ffffff;stroke:#9db4cc;stroke-width:3"
       d="m 380,233 a 40,13 0 0 1 -40,13 40,13 0 0 1 -40,-13 40,13 0 0 1 40,-13 40,13 0 0 1 40,13 z" />
    <path
       id="ellipse35"
       transform="rotate(4.8,300,236)"
       style="fill:#ffffff;stroke:#9db4cc;stroke-width:3"
       d="m 380,236 a 40,13 0 0 1 -40,13 40,13 0 0 1 -40,-13 40,13 0 0 1 40,-13 40,13 0 0 1 40,13 z" />
    <path
       id="ellipse36"
       transform="rotate(15.6,300,239)"
       style="fill:#ffffff;stroke:#9db4cc;stroke-width:3"
       d="m 380,239 a 40,13 0 0 1 -40,13 40,13 0 0 1 -40,-13 40,13 0 0 1 40,-13 40,13 0 0 1 40,13 z" />
    <path
       id="path46"
       d="M 200,86 A 114,114 0 0 0 86,200 114,114 0 0 0 200,314 114,114 0 0 0 314,200 114,114 0 0 0 200,86 Z m 0,18 a 96,96 0 0 1 96,96 96,96 0 0 1 -96,96 96,96 0 0 1 -96,-96 96,96 0 0 1 96,-96 z"
       style="fill:#9db4cc;fill-opacity:1" />
    <path
       id="path45"
       d="M 200,90 A 110,110 0 0 0 90,200 110,110 0 0 0 200,310 110,110 0 0 0 310,200 110,110 0 0 0 200,90 Z m 0,14 a 96,96 0 0 1 96,96 96,96 0 0 1 -96,96 96,96 0 0 1 -96,-96 96,96 0 0 1 96,-96 z"
       style="display:inline;fill:#ffffff;fill-opacity:1"
       sodipodi:insensitive="true" />
    <path
       id="path44"
       d="M 200,96 A 104,104 0 0 0 96,200 104,104 0 0 0 200,304 104,104 0 0 0 304,200 104,104 0 0 0 200,96 Z m 0,8 a 96,96 0 0 1 96,96 96,96 0 0 1 -96,96 96,96 0 0 1 -96,-96 96,96 0 0 1 96,-96 z"
       style="display:inline;fill:#f2da33;fill-opacity:1"
       sodipodi:insensitive="true" />
    <path
       id="ellipse43"
       style="fill:none;stroke:#b9770e;stroke-width:13"
       d="M 242,72 A 42,12 0 0 1 200,84 42,12 0 0 1 158,72 42,12 0 0 1 200,60 42,12 0 0 1 242,72 Z" />
    <path
       id="ellipse44"
       style="fill:none;stroke:url(#g11);stroke-width:8"
       d="M 242,72 A 42,12 0 0 1 200,84 42,12 0 0 1 158,72 42,12 0 0 1 200,60 42,12 0 0 1 242,72 Z" />
  </g>
</svg>
